<svg width="32" height="32" viewBox="0 0 32 32" fill="none" xmlns="http://www.w3.org/2000/svg">
<rect width="32" height="32" fill="white"/>
<path d="M15.9997 10.6666C14.429 10.6666 13.333 11.7626 13.333 13.3333C13.333 14.904 14.429 16 15.9997 16C17.5703 16 18.6663 14.904 18.6663 13.3333C18.6663 11.7626 17.5703 10.6666 15.9997 10.6666Z" fill="#46DBC9"/>
<path d="M16.0003 2.66663C8.77233 2.66663 2.66699 8.77196 2.66699 16C2.66699 20.252 4.78966 24.104 8.00033 26.5653V26.6666H8.13633C10.3603 28.3266 13.0843 29.3333 16.0003 29.3333C18.9163 29.3333 21.6403 28.3266 23.8643 26.6666H24.0003V26.5653C27.211 24.104 29.3337 20.2533 29.3337 16C29.3337 8.77196 23.2283 2.66663 16.0003 2.66663ZM10.7657 25.236C11.1617 23.4426 12.7577 22.0973 14.667 22.0973H17.3337C19.243 22.0973 20.839 23.444 21.235 25.236C19.6777 26.1386 17.8883 26.6666 16.0003 26.6666C14.1123 26.6666 12.323 26.1386 10.7657 25.236ZM23.4803 23.5213C22.471 21.1213 20.0963 19.4306 17.3337 19.4306H14.667C11.9043 19.4306 9.52833 21.1226 8.52033 23.5213C6.56433 21.576 5.33366 18.9013 5.33366 16C5.33366 10.2173 10.2177 5.33329 16.0003 5.33329C21.783 5.33329 26.667 10.2173 26.667 16C26.667 18.9013 25.4363 21.576 23.4803 23.5213Z" fill="#1B3C87"/>
<path d="M16.0003 8C12.9603 8 10.667 10.2933 10.667 13.3333C10.667 16.3733 12.9603 18.6667 16.0003 18.6667C19.0403 18.6667 21.3337 16.3733 21.3337 13.3333C21.3337 10.2933 19.0403 8 16.0003 8ZM16.0003 16C14.4297 16 13.3337 14.904 13.3337 13.3333C13.3337 11.7627 14.4297 10.6667 16.0003 10.6667C17.571 10.6667 18.667 11.7627 18.667 13.3333C18.667 14.904 17.571 16 16.0003 16Z" fill="#1B3C87"/>
</svg>
