<svg width="512" height="512" viewBox="0 0 512 512" fill="none" xmlns="http://www.w3.org/2000/svg">
<circle cx="256" cy="256" r="196" fill="white"/>
<path d="M256 170.667C230.869 170.667 213.333 188.203 213.333 213.333C213.333 238.464 230.869 256 256 256C281.13 256 298.666 238.464 298.666 213.333C298.666 188.203 281.13 170.667 256 170.667Z" fill="#46DBC9"/>
<path d="M256 42.6666C140.352 42.6666 42.667 140.352 42.667 256C42.667 324.032 76.6297 385.664 128 425.045V426.667H130.176C165.76 453.227 209.344 469.333 256 469.333C302.656 469.333 346.24 453.227 381.824 426.667H384V425.045C435.371 385.664 469.334 324.053 469.334 256C469.334 140.352 371.648 42.6666 256 42.6666ZM172.246 403.776C178.582 375.083 204.118 353.557 234.667 353.557H277.334C307.883 353.557 333.419 375.104 339.755 403.776C314.838 418.219 286.208 426.667 256 426.667C225.792 426.667 197.163 418.219 172.246 403.776ZM375.68 376.341C359.531 337.941 321.536 310.891 277.334 310.891H234.667C190.464 310.891 152.448 337.963 136.32 376.341C105.024 345.216 85.3337 302.421 85.3337 256C85.3337 163.477 163.478 85.3333 256 85.3333C348.523 85.3333 426.667 163.477 426.667 256C426.667 302.421 406.976 345.216 375.68 376.341Z" fill="#1B3C87"/>
<path d="M256 128C207.36 128 170.667 164.693 170.667 213.333C170.667 261.973 207.36 298.667 256 298.667C304.64 298.667 341.334 261.973 341.334 213.333C341.334 164.693 304.64 128 256 128ZM256 256C230.87 256 213.334 238.464 213.334 213.333C213.334 188.203 230.87 170.667 256 170.667C281.131 170.667 298.667 188.203 298.667 213.333C298.667 238.464 281.131 256 256 256Z" fill="#1B3C87"/>
</svg>
