<svg width="857" height="153" viewBox="0 0 857 153" fill="none" xmlns="http://www.w3.org/2000/svg">
<path d="M88.9259 63.1594H67.7921C67.4061 60.4252 66.618 57.9965 65.4278 55.8735C64.2377 53.7183 62.7097 51.8848 60.844 50.3729C58.9783 48.8611 56.8231 47.7031 54.3784 46.8989C51.9659 46.0947 49.3443 45.6926 46.5136 45.6926C41.399 45.6926 36.9439 46.9632 33.1482 49.5044C29.3525 52.0135 26.4092 55.6805 24.3183 60.5056C22.2274 65.2985 21.182 71.1207 21.182 77.9723C21.182 85.0169 22.2274 90.9356 24.3183 95.7285C26.4413 100.521 29.4007 104.14 33.1964 106.585C36.9921 109.03 41.3829 110.252 46.3688 110.252C49.1674 110.252 51.7568 109.882 54.1372 109.142C56.5497 108.402 58.6888 107.325 60.5545 105.909C62.4202 104.462 63.9642 102.709 65.1866 100.65C66.4411 98.5914 67.3096 96.2432 67.7921 93.6055L88.9259 93.702C88.379 98.2375 87.0119 102.612 84.8246 106.826C82.6694 111.008 79.7583 114.755 76.0912 118.069C72.4563 121.35 68.1138 123.955 63.0636 125.885C58.0455 127.783 52.368 128.732 46.0311 128.732C37.2173 128.732 29.3364 126.738 22.3883 122.749C15.4724 118.76 10.004 112.986 5.98308 105.427C1.99436 97.8676 0 88.7161 0 77.9723C0 67.1963 2.02653 58.0287 6.07958 50.4694C10.1326 42.9102 15.6332 37.1523 22.5813 33.1957C29.5294 29.207 37.346 27.2126 46.0311 27.2126C51.7568 27.2126 57.0644 28.0168 61.9538 29.6252C66.8754 31.2335 71.234 33.5817 75.0297 36.6698C78.8254 39.7256 81.9135 43.4731 84.2938 47.9122C86.7064 52.3512 88.2504 57.4336 88.9259 63.1594Z" fill="#1B3C87"/>
<path d="M102.413 127.381V28.5637H123.306V69.3354H165.718V28.5637H186.562V127.381H165.718V86.5609H123.306V127.381H102.413Z" fill="#1B3C87"/>
<path d="M202.293 127.381V28.5637H268.879V45.7891H223.186V69.3354H265.453V86.5609H223.186V110.155H269.072V127.381H202.293Z" fill="#1B3C87"/>
<path d="M371.183 63.1594H350.05C349.664 60.4252 348.875 57.9965 347.685 55.8735C346.495 53.7183 344.967 51.8848 343.102 50.3729C341.236 48.8611 339.081 47.7031 336.636 46.8989C334.223 46.0947 331.602 45.6926 328.771 45.6926C323.656 45.6926 319.201 46.9632 315.406 49.5044C311.61 52.0135 308.667 55.6805 306.576 60.5056C304.485 65.2985 303.439 71.1207 303.439 77.9723C303.439 85.0169 304.485 90.9356 306.576 95.7285C308.699 100.521 311.658 104.14 315.454 106.585C319.25 109.03 323.64 110.252 328.626 110.252C331.425 110.252 334.014 109.882 336.395 109.142C338.807 108.402 340.946 107.325 342.812 105.909C344.678 104.462 346.222 102.709 347.444 100.65C348.699 98.5914 349.567 96.2432 350.05 93.6055L371.183 93.702C370.636 98.2375 369.269 102.612 367.082 106.826C364.927 111.008 362.016 114.755 358.349 118.069C354.714 121.35 350.371 123.955 345.321 125.885C340.303 127.783 334.625 128.732 328.289 128.732C319.475 128.732 311.594 126.738 304.646 122.749C297.73 118.76 292.261 112.986 288.241 105.427C284.252 97.8676 282.257 88.7161 282.257 77.9723C282.257 67.1963 284.284 58.0287 288.337 50.4694C292.39 42.9102 297.891 37.1523 304.839 33.1957C311.787 29.207 319.603 27.2126 328.289 27.2126C334.014 27.2126 339.322 28.0168 344.211 29.6252C349.133 31.2335 353.491 33.5817 357.287 36.6698C361.083 39.7256 364.171 43.4731 366.551 47.9122C368.964 52.3512 370.508 57.4336 371.183 63.1594Z" fill="#1B3C87"/>
<path d="M384.671 127.381V28.5637H405.563V72.134H406.866L442.427 28.5637H467.469L430.798 72.8095L467.903 127.381H442.909L415.84 86.7539L405.563 99.2991V127.381H384.671Z" fill="#1B3C87"/>
<path d="M499.098 127.381L470.823 28.5637H493.646L510.003 97.2243H510.823L528.869 28.5637H548.41L566.408 97.369H567.276L583.633 28.5637H606.456L578.181 127.381H557.819L539.001 62.7733H538.229L519.46 127.381H499.098Z" fill="#1B3C87"/>
<path d="M616.143 127.381V28.5637H637.036V69.3354H679.448V28.5637H700.292V127.381H679.448V86.5609H637.036V127.381H616.143Z" fill="#1B3C87"/>
<path d="M779.89 50.9526C772.387 50.9526 767.152 56.188 767.152 63.6908C767.152 71.1936 772.387 76.429 779.89 76.429C787.393 76.429 792.628 71.1936 792.628 63.6908C792.628 56.188 787.393 50.9526 779.89 50.9526Z" fill="#46DBC9"/>
<path d="M779.89 12.7382C745.363 12.7382 716.199 41.9022 716.199 76.429C716.199 96.74 726.339 115.14 741.676 126.898V127.382H742.325C752.949 135.311 765.961 140.12 779.89 140.12C793.819 140.12 806.831 135.311 817.455 127.382H818.105V126.898C833.441 115.14 843.581 96.7463 843.581 76.429C843.581 41.9022 814.417 12.7382 779.89 12.7382ZM754.885 120.548C756.777 111.981 764.4 105.555 773.521 105.555H786.259C795.38 105.555 803.003 111.988 804.895 120.548C797.456 124.859 788.909 127.382 779.89 127.382C770.871 127.382 762.324 124.859 754.885 120.548ZM815.621 112.357C810.799 100.893 799.456 92.8166 786.259 92.8166H773.521C760.324 92.8166 748.975 100.899 744.16 112.357C734.816 103.064 728.937 90.2881 728.937 76.429C728.937 48.8063 752.267 25.4763 779.89 25.4763C807.513 25.4763 830.843 48.8063 830.843 76.429C830.843 90.2881 824.964 103.064 815.621 112.357Z" fill="#1B3C87"/>
<path d="M779.89 38.2145C765.369 38.2145 754.414 49.1693 754.414 63.6908C754.414 78.2123 765.369 89.1671 779.89 89.1671C794.412 89.1671 805.366 78.2123 805.366 63.6908C805.366 49.1693 794.412 38.2145 779.89 38.2145ZM779.89 76.429C772.387 76.429 767.152 71.1936 767.152 63.6908C767.152 56.188 772.387 50.9526 779.89 50.9526C787.393 50.9526 792.628 56.188 792.628 63.6908C792.628 71.1936 787.393 76.429 779.89 76.429Z" fill="#1B3C87"/>
</svg>
