<svg width="612" height="612" viewBox="0 0 612 612" fill="none" xmlns="http://www.w3.org/2000/svg">
<path d="M306 541.73C437.069 541.73 543.321 535.527 543.321 527.874C543.321 520.222 437.069 514.019 306 514.019C174.931 514.019 68.6786 520.222 68.6786 527.874C68.6786 535.527 174.931 541.73 306 541.73Z" fill="#F5F5F5"/>
<path d="M180.504 297.77C191.788 285.982 190.509 266.444 177.647 254.131C164.785 241.818 145.21 241.393 133.925 253.181C122.641 264.969 123.92 284.506 136.782 296.819C149.644 309.132 169.219 309.558 180.504 297.77Z" fill="#407BFF"/>
<g opacity="0.8">
<path opacity="0.8" d="M180.504 297.77C191.788 285.982 190.509 266.444 177.647 254.131C164.785 241.818 145.21 241.393 133.925 253.181C122.641 264.969 123.92 284.506 136.782 296.819C149.644 309.132 169.219 309.558 180.504 297.77Z" fill="white"/>
</g>
<path d="M142.829 256.11C142.572 256.11 142.321 256.029 142.113 255.879C141.904 255.728 141.749 255.516 141.667 255.273C141.586 255.029 141.584 254.766 141.66 254.521C141.737 254.276 141.889 254.061 142.094 253.906C146.216 250.948 151.184 249.403 156.256 249.5C156.58 249.5 156.892 249.629 157.121 249.859C157.351 250.088 157.48 250.399 157.48 250.724C157.48 251.049 157.351 251.36 157.121 251.59C156.892 251.819 156.58 251.948 156.256 251.948C151.713 251.848 147.26 253.222 143.563 255.865C143.351 256.024 143.093 256.11 142.829 256.11Z" fill="#407BFF"/>
<path d="M148.618 298.215C148.417 298.214 148.22 298.164 148.043 298.068C144.292 296.063 141.037 293.243 138.517 289.816C135.996 286.39 134.274 282.442 133.477 278.264C132.7 274.65 132.735 270.908 133.582 267.309C134.429 263.71 136.065 260.344 138.373 257.456C138.581 257.206 138.88 257.049 139.203 257.019C139.527 256.989 139.849 257.089 140.099 257.297C140.349 257.505 140.506 257.803 140.536 258.127C140.566 258.451 140.466 258.773 140.258 259.023C138.173 261.637 136.697 264.683 135.937 267.94C135.177 271.196 135.152 274.581 135.864 277.848C136.597 281.668 138.173 285.276 140.477 288.409C142.781 291.543 145.754 294.124 149.181 295.963C149.42 296.092 149.61 296.297 149.72 296.546C149.829 296.795 149.853 297.073 149.787 297.337C149.721 297.601 149.569 297.835 149.355 298.003C149.142 298.171 148.878 298.263 148.606 298.264L148.618 298.215Z" fill="#407BFF"/>
<path d="M160.87 301.41C158.131 301.398 155.409 300.96 152.804 300.113C152.651 300.063 152.508 299.983 152.386 299.878C152.263 299.774 152.162 299.646 152.089 299.502C152.015 299.358 151.971 299.201 151.958 299.04C151.946 298.879 151.965 298.718 152.015 298.564C152.064 298.411 152.144 298.268 152.249 298.146C152.354 298.023 152.482 297.922 152.625 297.849C152.769 297.775 152.926 297.731 153.087 297.718C153.248 297.706 153.41 297.725 153.563 297.775C161.091 300.223 168.606 298.852 174.175 294.103C177.001 291.609 179.136 288.429 180.375 284.871C181.614 281.312 181.915 277.493 181.25 273.784C181.198 273.46 181.277 273.128 181.47 272.861C181.663 272.595 181.953 272.416 182.278 272.364C182.603 272.313 182.935 272.392 183.201 272.584C183.467 272.777 183.646 273.068 183.698 273.393C184.44 277.514 184.103 281.758 182.719 285.711C181.336 289.664 178.953 293.191 175.803 295.951C171.652 299.522 166.345 301.462 160.87 301.41Z" fill="#407BFF"/>
<path d="M181.458 270.651C181.198 270.65 180.946 270.566 180.737 270.412C180.528 270.258 180.373 270.042 180.295 269.794C179.169 266.318 177.326 263.118 174.884 260.4C172.443 257.682 169.457 255.507 166.121 254.017C165.823 253.887 165.588 253.644 165.468 253.341C165.349 253.038 165.355 252.7 165.485 252.401C165.615 252.102 165.858 251.868 166.161 251.748C166.464 251.629 166.802 251.635 167.1 251.765C170.754 253.398 174.023 255.78 176.697 258.757C179.37 261.735 181.389 265.24 182.621 269.047C182.721 269.356 182.695 269.691 182.548 269.981C182.401 270.27 182.146 270.489 181.837 270.59C181.714 270.627 181.587 270.647 181.458 270.651Z" fill="#407BFF"/>
<path d="M162.168 252.634C162.074 252.646 161.98 252.646 161.886 252.634C160.044 252.205 158.159 251.987 156.268 251.985C155.943 251.985 155.632 251.856 155.403 251.626C155.173 251.397 155.044 251.085 155.044 250.761C155.044 250.436 155.173 250.125 155.403 249.895C155.632 249.666 155.943 249.537 156.268 249.537C158.329 249.543 160.382 249.785 162.388 250.259C162.713 250.296 163.009 250.461 163.212 250.717C163.415 250.973 163.509 251.299 163.471 251.624C163.434 251.948 163.269 252.245 163.013 252.448C162.757 252.651 162.431 252.744 162.107 252.707L162.168 252.634Z" fill="#407BFF"/>
<path d="M140.576 281.875C140.326 281.876 140.082 281.8 139.876 281.658C139.671 281.515 139.513 281.314 139.426 281.079C138.279 278.118 137.875 274.92 138.251 271.766C138.626 268.612 139.769 265.598 141.58 262.989C143.292 260.517 145.584 258.503 148.256 257.124C150.928 255.745 153.898 255.044 156.905 255.082C157.229 255.082 157.54 255.21 157.77 255.44C158 255.67 158.129 255.981 158.129 256.306C158.129 256.63 158 256.941 157.77 257.171C157.54 257.401 157.229 257.53 156.905 257.53C154.292 257.499 151.712 258.107 149.389 259.302C147.066 260.497 145.07 262.241 143.575 264.384C141.987 266.682 140.988 269.335 140.666 272.109C140.344 274.884 140.708 277.695 141.727 280.296C141.838 280.6 141.824 280.935 141.689 281.228C141.554 281.522 141.308 281.75 141.005 281.863C140.864 281.89 140.719 281.894 140.576 281.875Z" fill="#407BFF"/>
<path d="M159.989 295.853C156.32 295.73 152.735 294.724 149.539 292.919C146.342 291.114 143.629 288.564 141.629 285.486C141.48 285.215 141.44 284.899 141.514 284.599C141.589 284.3 141.774 284.04 142.033 283.871C142.291 283.703 142.604 283.638 142.908 283.69C143.212 283.742 143.485 283.907 143.673 284.152C145.451 286.89 147.861 289.16 150.701 290.771C153.541 292.382 156.727 293.285 159.989 293.405C160.314 293.405 160.625 293.534 160.855 293.763C161.084 293.993 161.213 294.304 161.213 294.629C161.213 294.954 161.084 295.265 160.855 295.494C160.625 295.724 160.314 295.853 159.989 295.853Z" fill="#407BFF"/>
<path d="M164.567 295.327C164.287 295.335 164.013 295.247 163.791 295.078C163.568 294.908 163.41 294.668 163.343 294.396C163.265 294.082 163.316 293.749 163.483 293.471C163.651 293.193 163.922 292.994 164.236 292.915C174.163 290.467 176.733 281.765 175.913 275.082C174.848 266.367 167.97 257.542 156.868 257.53C156.543 257.53 156.232 257.401 156.002 257.171C155.773 256.941 155.644 256.63 155.644 256.306C155.644 255.981 155.773 255.67 156.002 255.44C156.232 255.21 156.543 255.082 156.868 255.082C169.389 255.082 177.15 264.996 178.349 274.788C179.573 284.886 174.273 292.94 164.824 295.29C164.74 295.311 164.654 295.324 164.567 295.327Z" fill="#407BFF"/>
<path d="M151.898 264.286C151.666 264.284 151.44 264.217 151.245 264.091C151.05 263.965 150.894 263.787 150.797 263.576C150.659 263.282 150.643 262.946 150.753 262.641C150.864 262.335 151.091 262.086 151.384 261.948C153.261 261.118 155.294 260.701 157.345 260.724C157.67 260.724 157.981 260.853 158.211 261.083C158.44 261.312 158.569 261.624 158.569 261.948C158.569 262.273 158.44 262.584 158.211 262.814C157.981 263.043 157.67 263.172 157.345 263.172C155.656 263.173 153.986 263.536 152.449 264.237C152.272 264.295 152.083 264.312 151.898 264.286Z" fill="#407BFF"/>
<path d="M159.769 290.149C156.669 290.099 153.648 289.162 151.064 287.448C148.481 285.735 146.442 283.316 145.191 280.48C142.657 274.959 143.404 269.194 147.186 265.033C147.405 264.795 147.71 264.653 148.034 264.64C148.357 264.626 148.673 264.741 148.912 264.959C149.15 265.179 149.291 265.484 149.305 265.807C149.319 266.13 149.204 266.446 148.985 266.685C147.464 268.405 146.501 270.546 146.221 272.825C145.941 275.104 146.359 277.414 147.419 279.451C148.5 281.924 150.285 284.024 152.55 285.49C154.815 286.957 157.462 287.726 160.16 287.701C162.202 287.686 164.195 287.081 165.9 285.958C167.605 284.835 168.949 283.243 169.769 281.373C170.691 279.167 170.968 276.746 170.57 274.389C170.171 272.032 169.113 269.836 167.517 268.056C167.412 267.934 167.333 267.792 167.283 267.639C167.233 267.487 167.214 267.325 167.227 267.165C167.239 267.005 167.283 266.849 167.356 266.705C167.429 266.562 167.529 266.435 167.651 266.33C167.773 266.226 167.915 266.146 168.068 266.096C168.221 266.047 168.382 266.027 168.542 266.04C168.702 266.052 168.859 266.096 169.002 266.169C169.145 266.242 169.273 266.343 169.377 266.465C171.277 268.596 172.533 271.223 172.999 274.039C173.465 276.856 173.121 279.747 172.009 282.377C171.004 284.671 169.359 286.626 167.27 288.007C165.181 289.388 162.738 290.136 160.234 290.161L159.769 290.149Z" fill="#407BFF"/>
<path d="M164.922 265.363C164.691 265.364 164.465 265.296 164.273 265.167C162.206 263.837 159.803 263.124 157.345 263.111C157.021 263.111 156.709 262.982 156.48 262.752C156.25 262.523 156.121 262.212 156.121 261.887C156.121 261.562 156.25 261.251 156.48 261.021C156.709 260.792 157.021 260.663 157.345 260.663C160.269 260.674 163.128 261.523 165.583 263.111C165.804 263.254 165.974 263.465 166.066 263.713C166.158 263.96 166.167 264.231 166.093 264.484C166.019 264.737 165.865 264.96 165.653 265.118C165.442 265.276 165.186 265.362 164.922 265.363Z" fill="#407BFF"/>
<path d="M159.12 284.629C157.69 284.619 156.279 284.296 154.987 283.683C153.695 283.07 152.553 282.181 151.641 281.079C150.465 279.733 149.701 278.076 149.44 276.307C149.18 274.539 149.434 272.732 150.173 271.104C150.832 269.626 151.91 268.374 153.275 267.503C154.639 266.633 156.229 266.182 157.847 266.208C158.172 266.208 158.483 266.337 158.713 266.566C158.942 266.796 159.071 267.107 159.071 267.432C159.071 267.756 158.942 268.068 158.713 268.297C158.483 268.527 158.172 268.656 157.847 268.656C156.703 268.635 155.577 268.949 154.609 269.56C153.641 270.171 152.873 271.053 152.4 272.095C151.862 273.297 151.681 274.629 151.878 275.931C152.076 277.233 152.644 278.451 153.514 279.439C154.381 280.501 155.531 281.295 156.831 281.728C158.131 282.162 159.528 282.217 160.858 281.887C161.94 281.644 162.93 281.094 163.709 280.304C164.488 279.514 165.024 278.517 165.252 277.432C165.322 277.116 165.515 276.84 165.788 276.666C166.061 276.491 166.392 276.432 166.709 276.502C166.866 276.535 167.016 276.599 167.149 276.691C167.282 276.782 167.395 276.899 167.483 277.034C167.57 277.169 167.63 277.321 167.659 277.479C167.688 277.638 167.685 277.801 167.651 277.958C167.327 279.49 166.572 280.897 165.475 282.014C164.377 283.131 162.984 283.911 161.458 284.262C160.696 284.477 159.911 284.6 159.12 284.629Z" fill="#407BFF"/>
<path d="M166.244 274.935C165.974 274.947 165.707 274.87 165.486 274.715C165.264 274.56 165.1 274.336 165.02 274.078C164.531 272.544 163.576 271.201 162.289 270.236C161.001 269.271 159.444 268.731 157.835 268.692C157.51 268.692 157.199 268.563 156.969 268.334C156.74 268.104 156.611 267.793 156.611 267.468C156.611 267.144 156.74 266.832 156.969 266.603C157.199 266.373 157.51 266.244 157.835 266.244C159.963 266.292 162.023 267.001 163.73 268.273C165.437 269.545 166.704 271.318 167.357 273.344C167.407 273.497 167.426 273.659 167.412 273.82C167.399 273.98 167.354 274.137 167.28 274.28C167.206 274.423 167.105 274.551 166.982 274.655C166.858 274.759 166.716 274.837 166.562 274.886C166.458 274.916 166.351 274.933 166.244 274.935Z" fill="#407BFF"/>
<path d="M159.45 279.537C159.126 279.537 158.815 279.408 158.585 279.179C158.355 278.949 158.226 278.638 158.226 278.313C158.226 277.988 158.355 277.677 158.585 277.448C158.815 277.218 159.126 277.089 159.45 277.089C159.618 277.089 159.783 277.055 159.936 276.989C160.09 276.923 160.228 276.827 160.343 276.705C160.458 276.583 160.546 276.44 160.603 276.283C160.66 276.126 160.685 275.958 160.674 275.792C160.681 275.553 160.64 275.316 160.554 275.094C160.468 274.871 160.339 274.668 160.174 274.496C160.009 274.324 159.811 274.187 159.592 274.092C159.373 273.997 159.138 273.947 158.9 273.943C158.72 273.948 158.543 273.988 158.379 274.062C158.216 274.135 158.068 274.241 157.945 274.372C157.82 274.52 157.725 274.691 157.666 274.876C157.607 275.061 157.585 275.256 157.602 275.449C157.612 275.61 157.59 275.771 157.537 275.923C157.485 276.075 157.403 276.215 157.296 276.336C157.189 276.456 157.059 276.555 156.914 276.625C156.77 276.695 156.612 276.737 156.452 276.746C156.291 276.756 156.13 276.734 155.978 276.681C155.825 276.629 155.685 276.547 155.565 276.44C155.444 276.333 155.346 276.203 155.276 276.059C155.205 275.914 155.164 275.757 155.154 275.596C155.111 275.082 155.173 274.565 155.336 274.076C155.5 273.587 155.761 273.137 156.105 272.753C156.449 272.369 156.868 272.059 157.336 271.843C157.804 271.627 158.311 271.509 158.826 271.495C159.387 271.497 159.941 271.61 160.457 271.827C160.974 272.044 161.442 272.362 161.835 272.762C162.228 273.161 162.537 273.635 162.746 274.155C162.954 274.675 163.057 275.231 163.049 275.792C163.059 276.28 162.971 276.765 162.791 277.219C162.611 277.673 162.342 278.087 162 278.436C161.658 278.784 161.25 279.062 160.799 279.251C160.349 279.44 159.865 279.537 159.377 279.537H159.45Z" fill="#407BFF"/>
<path d="M190.944 275.461C192.437 292.511 179.818 306.33 162.792 306.33H161.47C177.7 305.498 189.487 292.01 188.043 275.498C187.209 267.416 183.544 259.889 177.695 254.249C171.846 248.608 164.192 245.218 156.084 244.678C156.513 244.678 156.954 244.678 157.394 244.678C174.469 244.604 189.5 258.423 190.944 275.461Z" fill="#407BFF"/>
<g opacity="0.4">
<path opacity="0.4" d="M190.944 275.461C192.437 292.511 179.818 306.33 162.792 306.33H161.47C177.7 305.498 189.487 292.01 188.043 275.498C187.209 267.416 183.544 259.889 177.695 254.249C171.846 248.608 164.192 245.218 156.084 244.678C156.513 244.678 156.954 244.678 157.394 244.678C174.469 244.604 189.5 258.423 190.944 275.461Z" fill="white"/>
</g>
<path d="M215.938 125.019C215.968 125.385 216.017 125.748 216.085 126.109C216.547 128.467 217.757 130.613 219.537 132.229C221.553 134.117 224.204 135.178 226.966 135.203H330.382C331.589 135.227 332.789 135.011 333.912 134.568C335.035 134.124 336.058 133.462 336.923 132.619C337.787 131.776 338.476 130.77 338.948 129.658C339.42 128.547 339.666 127.353 339.672 126.145C339.69 125.783 339.69 125.419 339.672 125.056C339.384 122.316 338.106 119.774 336.078 117.909C334.05 116.043 331.411 114.981 328.656 114.921H225.216C223.919 114.895 222.632 115.145 221.439 115.655C220.246 116.164 219.176 116.922 218.298 117.877C217.421 118.832 216.757 119.963 216.35 121.194C215.943 122.426 215.802 123.73 215.938 125.019Z" fill="#407BFF"/>
<path opacity="0.8" d="M215.938 125.019C215.968 125.385 216.017 125.748 216.085 126.109C216.547 128.467 217.757 130.613 219.537 132.229C221.553 134.117 224.204 135.178 226.966 135.203H330.382C331.589 135.227 332.789 135.011 333.912 134.568C335.035 134.124 336.058 133.462 336.923 132.619C337.787 131.776 338.476 130.77 338.948 129.658C339.42 128.547 339.666 127.353 339.672 126.145C339.69 125.783 339.69 125.419 339.672 125.056C339.384 122.316 338.106 119.774 336.078 117.909C334.05 116.043 331.411 114.981 328.656 114.921H225.216C223.919 114.895 222.632 115.145 221.439 115.655C220.246 116.164 219.176 116.922 218.298 117.877C217.421 118.832 216.757 119.963 216.35 121.194C215.943 122.426 215.802 123.73 215.938 125.019Z" fill="white"/>
<path d="M339.672 126.072C339.673 126.4 339.648 126.727 339.599 127.051C339.234 124.373 337.923 121.913 335.902 120.117C333.882 118.321 331.286 117.308 328.583 117.259L218.631 117.504C219.503 116.656 220.533 115.988 221.663 115.539C222.793 115.089 224 114.867 225.216 114.885H328.632C331.387 114.944 334.026 116.006 336.054 117.872C338.082 119.738 339.359 122.279 339.648 125.019C339.673 125.37 339.681 125.721 339.672 126.072Z" fill="#407BFF"/>
<path opacity="0.5" d="M339.672 126.072C339.673 126.4 339.648 126.727 339.599 127.051C339.234 124.373 337.923 121.913 335.902 120.117C333.882 118.321 331.286 117.308 328.583 117.259L218.631 117.504C219.503 116.656 220.533 115.988 221.663 115.539C222.793 115.089 224 114.867 225.216 114.885H328.632C331.387 114.944 334.026 116.006 336.054 117.872C338.082 119.738 339.359 122.279 339.648 125.019C339.673 125.37 339.681 125.721 339.672 126.072Z" fill="white"/>
<path d="M321.912 119.781L322.353 124.677L326.955 122.963L328.044 125.411L323.344 126.978L326.722 131.127L324.605 132.682L321.312 128.373L318.864 132.682L316.551 131.127L319.158 126.978L314.262 125.411L314.923 122.963L319.88 124.615L319.44 119.719L321.912 119.781Z" fill="#407BFF"/>
<path d="M293.576 119.781L294.017 124.677L298.619 122.963L299.721 125.411L294.984 127.014L298.362 131.164L296.257 132.718L292.964 128.41L290.516 132.718L288.191 131.164L290.81 127.014L285.914 125.448L286.575 123L291.532 124.652L291.104 119.756L293.576 119.781Z" fill="#407BFF"/>
<path d="M265.302 119.781L265.73 124.677L270.333 122.963L271.434 125.411L266.722 126.978L270.1 131.127L268.056 132.718L264.763 128.41L262.315 132.718L260.002 131.164L262.609 127.014L257.713 125.448L258.386 123L263.282 124.652L262.854 119.756L265.302 119.781Z" fill="#407BFF"/>
<path d="M237.015 119.781L237.444 124.677L242.058 122.963L243.148 125.411L238.435 126.978L241.826 131.127L239.708 132.682L236.416 128.373L233.968 132.682L231.654 131.127L234.261 126.978L229.365 125.411L230.026 122.963L234.922 124.615L234.494 119.719L237.015 119.781Z" fill="#407BFF"/>
<path d="M305.572 110.087H300.749V111.311H305.572V110.087Z" fill="#407BFF"/>
<path d="M326.294 110.087H310.566V111.311H326.294V110.087Z" fill="#407BFF"/>
<path opacity="0.8" d="M486.895 155.742L481.889 212.976C481.696 214.803 480.844 216.496 479.492 217.74C478.14 218.984 476.381 219.692 474.545 219.732H434.802C433.941 219.737 433.09 219.56 432.303 219.214C431.515 218.867 430.81 218.359 430.232 217.721C429.655 217.084 429.218 216.331 428.951 215.514C428.684 214.696 428.592 213.831 428.682 212.976L433.688 155.729C433.873 153.9 434.723 152.202 436.076 150.956C437.43 149.711 439.193 149.006 441.032 148.973H480.775C481.636 148.968 482.489 149.145 483.277 149.492C484.065 149.84 484.771 150.35 485.349 150.988C485.927 151.627 486.363 152.381 486.629 153.2C486.896 154.019 486.986 154.885 486.895 155.742Z" fill="#407BFF"/>
<path opacity="0.8" d="M486.895 155.742L481.889 212.976C481.696 214.803 480.844 216.496 479.492 217.74C478.14 218.984 476.381 219.692 474.545 219.732H434.802C433.941 219.737 433.09 219.56 432.303 219.214C431.515 218.867 430.81 218.359 430.232 217.721C429.655 217.084 429.218 216.331 428.951 215.514C428.684 214.696 428.592 213.831 428.682 212.976L433.688 155.729C433.873 153.9 434.723 152.202 436.076 150.956C437.43 149.711 439.193 149.006 441.032 148.973H480.775C481.636 148.968 482.489 149.145 483.277 149.492C484.065 149.84 484.771 150.35 485.349 150.988C485.927 151.627 486.363 152.381 486.629 153.2C486.896 154.019 486.986 154.885 486.895 155.742Z" fill="white"/>
<path d="M437.311 164.971H437.201C436.878 164.943 436.579 164.788 436.37 164.54C436.162 164.292 436.06 163.972 436.087 163.649L436.552 158.41C436.579 158.105 436.72 157.821 436.947 157.615C437.174 157.409 437.469 157.295 437.776 157.296H443.308C443.633 157.296 443.944 157.425 444.174 157.655C444.403 157.884 444.532 158.196 444.532 158.52C444.532 158.845 444.403 159.156 444.174 159.386C443.944 159.615 443.633 159.744 443.308 159.744H438.902L438.535 163.857C438.507 164.162 438.366 164.446 438.139 164.652C437.913 164.858 437.617 164.972 437.311 164.971Z" fill="#407BFF"/>
<path d="M481.815 164.971H481.705C481.382 164.943 481.084 164.788 480.875 164.54C480.666 164.292 480.564 163.972 480.591 163.649L480.934 159.744H476.748C476.423 159.744 476.112 159.615 475.883 159.386C475.653 159.156 475.524 158.845 475.524 158.52C475.524 158.196 475.653 157.884 475.883 157.655C476.112 157.425 476.423 157.296 476.748 157.296H482.256C482.426 157.295 482.595 157.33 482.751 157.399C482.907 157.467 483.048 157.567 483.163 157.693C483.278 157.818 483.366 157.967 483.42 158.128C483.475 158.289 483.495 158.461 483.48 158.63L483.015 163.857C482.988 164.158 482.85 164.438 482.629 164.644C482.407 164.849 482.118 164.966 481.815 164.971Z" fill="#407BFF"/>
<path d="M439.416 204.469H433.884C433.716 204.469 433.55 204.434 433.396 204.366C433.242 204.299 433.104 204.201 432.99 204.078C432.876 203.953 432.788 203.806 432.733 203.646C432.679 203.486 432.658 203.316 432.672 203.147L433.125 197.909C433.152 197.584 433.308 197.284 433.557 197.074C433.806 196.863 434.128 196.761 434.453 196.789C434.777 196.816 435.078 196.972 435.288 197.221C435.498 197.47 435.6 197.792 435.573 198.117L435.23 202.021H439.416C439.741 202.021 440.052 202.15 440.281 202.38C440.511 202.609 440.64 202.921 440.64 203.245C440.64 203.57 440.511 203.881 440.281 204.111C440.052 204.34 439.741 204.469 439.416 204.469Z" fill="#407BFF"/>
<path d="M478.351 204.469H472.831C472.507 204.469 472.195 204.34 471.966 204.111C471.736 203.881 471.607 203.57 471.607 203.245C471.607 202.921 471.736 202.609 471.966 202.38C472.195 202.15 472.507 202.021 472.831 202.021H477.238L477.593 197.909C477.621 197.586 477.775 197.287 478.023 197.078C478.271 196.87 478.592 196.768 478.914 196.795C479.237 196.823 479.536 196.978 479.745 197.225C479.953 197.473 480.055 197.794 480.028 198.117L479.575 203.355C479.548 203.661 479.407 203.944 479.18 204.15C478.954 204.357 478.658 204.47 478.351 204.469Z" fill="#407BFF"/>
<path d="M474.139 184.734C476.902 174.019 472.159 163.531 463.544 161.31C454.93 159.088 445.707 165.974 442.943 176.69C440.18 187.405 444.923 197.893 453.538 200.114C462.152 202.336 471.375 195.45 474.139 184.734Z" fill="white"/>
<path d="M463.345 211.177H447.494L448.878 195.326H464.728L463.345 211.177Z" fill="white"/>
<path d="M481.889 212.976C481.696 214.803 480.844 216.496 479.492 217.74C478.14 218.984 476.381 219.692 474.545 219.732H434.802C433.941 219.737 433.09 219.56 432.303 219.214C431.515 218.867 430.81 218.359 430.232 217.721C429.655 217.084 429.218 216.332 428.951 215.514C428.684 214.696 428.592 213.832 428.682 212.976C428.682 212.976 446.944 207.199 449.196 207.199H463.308L481.889 212.976Z" fill="white"/>
<path d="M489.203 172.468L487.351 194.95L488.571 195.051L490.423 172.569L489.203 172.468Z" fill="#407BFF"/>
<path d="M490.491 162.18L490.127 166.596L491.347 166.697L491.711 162.281L490.491 162.18Z" fill="#407BFF"/>
<path d="M447.837 298.742H443.015V299.966H447.837V298.742Z" fill="#407BFF"/>
<path d="M468.559 298.742H452.831V299.966H468.559V298.742Z" fill="#407BFF"/>
<path d="M497.348 277.848L494.3 312.732C494.142 314.274 493.424 315.704 492.283 316.753C491.142 317.801 489.656 318.396 488.107 318.424C487.378 318.437 486.654 318.294 485.984 318.006C485.314 317.718 484.713 317.29 484.221 316.752C483.729 316.214 483.357 315.577 483.13 314.884C482.903 314.191 482.826 313.457 482.905 312.732L485.928 277.848C486.209 275.246 485.935 272.614 485.121 270.127C484.308 267.64 482.975 265.354 481.211 263.421C479.447 261.488 477.292 259.952 474.889 258.915C472.487 257.878 469.891 257.364 467.274 257.407H454.838C449.276 257.512 443.945 259.649 439.85 263.415C435.756 267.181 433.18 272.314 432.611 277.848L431.387 292.095H420.003L421.227 277.848C422.757 260.296 438.29 246.024 455.83 246.024H468.315C472.388 245.957 476.429 246.757 480.17 248.371C483.911 249.985 487.265 252.376 490.011 255.386C492.757 258.396 494.831 261.955 496.096 265.828C497.361 269.7 497.788 273.798 497.348 277.848Z" fill="#407BFF"/>
<g opacity="0.5">
<path opacity="0.5" d="M497.348 277.848L494.3 312.732C494.142 314.274 493.424 315.704 492.283 316.753C491.142 317.801 489.656 318.396 488.107 318.424C487.378 318.437 486.654 318.294 485.984 318.006C485.314 317.718 484.713 317.29 484.221 316.752C483.729 316.214 483.357 315.577 483.13 314.884C482.903 314.191 482.826 313.457 482.905 312.732L485.928 277.848C486.209 275.246 485.935 272.614 485.121 270.127C484.308 267.64 482.975 265.354 481.211 263.421C479.447 261.488 477.292 259.952 474.889 258.915C472.487 257.878 469.891 257.364 467.274 257.407H454.838C449.276 257.512 443.945 259.649 439.85 263.415C435.756 267.181 433.18 272.314 432.611 277.848L431.387 292.095H420.003L421.227 277.848C422.757 260.296 438.29 246.024 455.83 246.024H468.315C472.388 245.957 476.429 246.757 480.17 248.371C483.911 249.985 487.265 252.376 490.011 255.386C492.757 258.396 494.831 261.955 496.096 265.828C497.361 269.7 497.788 273.798 497.348 277.848Z" fill="white"/>
</g>
<path d="M498.168 311.459L492.232 379.44C492.016 381.548 491.035 383.503 489.474 384.936C487.912 386.368 485.88 387.178 483.762 387.212H415.781C414.785 387.23 413.797 387.036 412.882 386.643C411.967 386.249 411.147 385.665 410.475 384.93C409.803 384.195 409.296 383.325 408.987 382.378C408.678 381.432 408.573 380.43 408.681 379.44L414.63 311.459C414.767 310.104 415.222 308.8 415.958 307.653C416.693 306.507 417.69 305.55 418.865 304.862C420.141 304.08 421.604 303.658 423.1 303.638H491.069C492.457 303.63 493.82 304.016 494.998 304.752C496.097 305.464 496.977 306.47 497.537 307.655C498.096 308.839 498.315 310.157 498.168 311.459Z" fill="#407BFF"/>
<path d="M427.482 341.153L445.144 368.338L503.394 310.088C503.484 309.98 503.533 309.844 503.531 309.703C503.528 309.562 503.476 309.427 503.383 309.322C503.289 309.217 503.161 309.149 503.022 309.13C502.883 309.111 502.741 309.143 502.623 309.219L447.115 352.732L436.625 335.829L427.482 341.153Z" fill="white"/>
<path d="M149.328 209.683H105.044C102.995 209.646 101.03 208.86 99.5215 207.473C98.0127 206.086 97.0642 204.194 96.8551 202.156L93.024 157.896C92.9177 156.938 93.0169 155.968 93.3152 155.051C93.6135 154.134 94.104 153.291 94.7538 152.578C95.4037 151.866 96.198 151.3 97.0838 150.919C97.9696 150.538 98.9265 150.35 99.8906 150.368H144.126C146.167 150.415 148.121 151.205 149.62 152.592C151.119 153.978 152.06 155.865 152.266 157.896L156.133 202.131C156.243 203.086 156.148 204.054 155.855 204.97C155.562 205.885 155.077 206.728 154.434 207.442C153.79 208.156 153.002 208.726 152.122 209.112C151.242 209.498 150.289 209.693 149.328 209.683Z" fill="#407BFF"/>
<path opacity="0.8" d="M149.328 209.683H105.044C102.995 209.646 101.03 208.86 99.5215 207.473C98.0127 206.086 97.0642 204.194 96.8551 202.156L93.024 157.896C92.9177 156.938 93.0169 155.968 93.3152 155.051C93.6135 154.134 94.104 153.291 94.7538 152.578C95.4037 151.866 96.198 151.3 97.0838 150.919C97.9696 150.538 98.9265 150.35 99.8906 150.368H144.126C146.167 150.415 148.121 151.205 149.62 152.592C151.119 153.978 152.06 155.865 152.266 157.896L156.133 202.131C156.243 203.086 156.148 204.054 155.855 204.97C155.562 205.885 155.077 206.728 154.434 207.442C153.79 208.156 153.002 208.726 152.122 209.112C151.242 209.498 150.289 209.693 149.328 209.683Z" fill="white"/>
<path d="M96.8796 184.493C96.8796 184.493 112.608 162.596 124.187 163.159C135.766 163.722 155.007 183.967 155.007 183.967C155.007 183.967 126.647 198.863 96.8796 184.493Z" fill="white"/>
<path d="M97.3814 184.824L96.39 184.114C97.0265 183.221 112.02 162.51 123.746 162.51H124.224C135.925 163.074 154.652 182.682 155.448 183.514L154.567 184.359C154.371 184.163 135.374 164.273 124.163 163.734H123.746C112.608 163.759 97.5283 184.64 97.3814 184.824Z" fill="#263238"/>
<path d="M95.2517 185.265C92.8771 185.265 89.7926 184.383 88.7033 181.03C88.6531 180.875 88.6661 180.708 88.7396 180.563C88.813 180.418 88.9408 180.309 89.095 180.259C89.1712 180.232 89.2521 180.221 89.3327 180.226C89.4133 180.232 89.4919 180.254 89.5639 180.29C89.6359 180.327 89.6998 180.377 89.7517 180.439C89.8037 180.501 89.8426 180.573 89.8661 180.65C91.2737 184.983 96.5369 183.943 96.7572 183.894C96.9159 183.865 97.0798 183.898 97.2145 183.987C97.3491 184.076 97.444 184.214 97.4794 184.371C97.4954 184.45 97.4959 184.531 97.4806 184.61C97.4653 184.689 97.4346 184.764 97.3903 184.831C97.346 184.898 97.2888 184.956 97.2222 185.001C97.1556 185.046 97.0808 185.077 97.002 185.093C96.4255 185.207 95.8393 185.265 95.2517 185.265Z" fill="#263238"/>
<path d="M104.591 175.864C104.454 175.867 104.321 175.824 104.211 175.742C104.028 175.595 99.6826 172.241 98.581 168.826C98.5308 168.672 98.5438 168.504 98.6173 168.36C98.6907 168.215 98.8185 168.106 98.9726 168.055C99.1269 168.008 99.2933 168.023 99.437 168.096C99.5808 168.169 99.6907 168.295 99.7438 168.447C100.735 171.495 104.909 174.738 104.958 174.763C105.086 174.862 105.169 175.008 105.19 175.168C105.211 175.329 105.167 175.491 105.068 175.62C105.012 175.694 104.94 175.755 104.858 175.797C104.775 175.839 104.684 175.862 104.591 175.864Z" fill="#263238"/>
<path d="M113.575 167.529C113.415 167.52 113.264 167.45 113.153 167.334C113.041 167.219 112.978 167.065 112.975 166.905C112.26 164.239 111.373 161.622 110.319 159.071C110.013 158.263 109.793 157.676 109.744 157.529C109.719 157.451 109.711 157.369 109.719 157.288C109.727 157.206 109.751 157.127 109.789 157.055C109.828 156.984 109.881 156.92 109.945 156.869C110.008 156.818 110.081 156.78 110.16 156.758C110.237 156.735 110.318 156.728 110.398 156.737C110.478 156.746 110.555 156.77 110.626 156.809C110.696 156.847 110.758 156.899 110.809 156.962C110.859 157.025 110.896 157.097 110.919 157.174C110.919 157.321 111.176 157.859 111.457 158.63C113.171 163.122 114.224 166.072 114.199 166.929C114.199 167.01 114.183 167.09 114.151 167.164C114.12 167.239 114.073 167.306 114.015 167.362C113.957 167.418 113.888 167.462 113.812 167.49C113.736 167.519 113.656 167.532 113.575 167.529Z" fill="#263238"/>
<path d="M124.187 163.771C124.034 163.766 123.889 163.707 123.776 163.603C123.664 163.5 123.593 163.36 123.575 163.208L122.718 153.416C122.704 153.254 122.754 153.092 122.859 152.967C122.963 152.842 123.113 152.764 123.275 152.749C123.437 152.734 123.599 152.785 123.724 152.889C123.849 152.994 123.928 153.144 123.942 153.306L124.799 163.171C124.81 163.331 124.758 163.489 124.656 163.612C124.553 163.735 124.407 163.814 124.248 163.832L124.187 163.771Z" fill="#263238"/>
<path d="M156.843 184.591C156.245 184.594 155.647 184.545 155.056 184.445C154.978 184.429 154.903 184.397 154.836 184.352C154.769 184.307 154.712 184.249 154.668 184.182C154.624 184.115 154.593 184.04 154.578 183.961C154.562 183.882 154.563 183.801 154.579 183.722C154.592 183.643 154.621 183.568 154.664 183.5C154.708 183.433 154.764 183.375 154.831 183.33C154.897 183.286 154.972 183.255 155.051 183.24C155.13 183.226 155.211 183.227 155.289 183.245C155.289 183.245 158.288 183.82 160.124 182.523C160.517 182.237 160.844 181.871 161.085 181.449C161.325 181.027 161.473 180.559 161.519 180.075C161.531 179.995 161.559 179.917 161.601 179.848C161.643 179.778 161.698 179.717 161.763 179.669C161.829 179.621 161.903 179.586 161.982 179.566C162.061 179.547 162.142 179.543 162.223 179.555C162.303 179.567 162.38 179.595 162.45 179.636C162.52 179.678 162.58 179.734 162.629 179.799C162.677 179.864 162.712 179.938 162.732 180.017C162.751 180.096 162.755 180.178 162.743 180.258C162.669 180.903 162.461 181.524 162.132 182.083C161.803 182.641 161.361 183.125 160.834 183.502C159.644 184.26 158.253 184.64 156.843 184.591Z" fill="#263238"/>
<path d="M145.852 175.216C145.766 175.216 145.68 175.198 145.602 175.162C145.524 175.126 145.455 175.073 145.399 175.007C145.342 174.951 145.296 174.883 145.265 174.808C145.234 174.734 145.218 174.654 145.218 174.573C145.218 174.492 145.234 174.412 145.265 174.338C145.296 174.263 145.342 174.195 145.399 174.138C145.399 174.138 149.071 170.907 149.463 167.896C149.49 167.737 149.578 167.594 149.708 167.498C149.838 167.402 150 167.361 150.16 167.382C150.24 167.394 150.316 167.421 150.385 167.463C150.454 167.505 150.514 167.559 150.562 167.624C150.61 167.689 150.644 167.762 150.664 167.841C150.683 167.919 150.687 168 150.674 168.08C150.16 171.531 146.366 174.91 146.207 175.056C146.111 175.15 145.985 175.206 145.852 175.216Z" fill="#263238"/>
<path d="M135.509 168.104H135.399C135.239 168.074 135.098 167.983 135.004 167.851C134.91 167.718 134.872 167.555 134.897 167.394C134.897 167.321 136.243 159.45 136.488 157.835C136.5 157.754 136.528 157.677 136.57 157.608C136.612 157.538 136.667 157.477 136.732 157.429C136.798 157.381 136.872 157.346 136.951 157.326C137.03 157.306 137.112 157.303 137.192 157.315C137.272 157.327 137.35 157.354 137.419 157.396C137.489 157.438 137.55 157.493 137.598 157.559C137.646 157.624 137.681 157.698 137.701 157.777C137.72 157.856 137.724 157.938 137.712 158.018C137.467 159.646 136.133 167.529 136.121 167.602C136.095 167.745 136.019 167.874 135.907 167.965C135.795 168.057 135.654 168.106 135.509 168.104Z" fill="#263238"/>
<path d="M135.869 187.058C140.936 181.764 140.357 172.986 134.575 167.452C128.793 161.917 119.999 161.721 114.931 167.015C109.864 172.308 110.443 181.086 116.225 186.621C122.007 192.155 130.801 192.351 135.869 187.058Z" fill="#407BFF"/>
<path opacity="0.3" d="M131.139 177.027C131.158 176.717 131.158 176.407 131.139 176.097C130.975 174.501 130.232 173.021 129.05 171.936C127.868 170.851 126.33 170.237 124.726 170.209C123.972 170.196 123.224 170.344 122.531 170.642C121.839 170.94 121.218 171.383 120.709 171.94C120.201 172.497 119.817 173.155 119.583 173.872C119.349 174.589 119.27 175.347 119.352 176.097C119.372 176.413 119.43 176.725 119.524 177.027H111.543C111.348 175.262 111.531 173.476 112.081 171.787C112.63 170.099 113.533 168.547 114.73 167.234C115.926 165.922 117.388 164.88 119.019 164.177C120.65 163.475 122.412 163.128 124.187 163.159C127.962 163.229 131.581 164.678 134.362 167.233C137.142 169.787 138.891 173.271 139.279 177.027H131.139Z" fill="black"/>
<path opacity="0.7" d="M131.127 176.097C131.145 176.407 131.145 176.717 131.127 177.027C131.039 178.39 130.429 179.666 129.423 180.589C128.418 181.513 127.094 182.012 125.729 181.984C124.29 181.957 122.9 181.457 121.774 180.561C120.648 179.665 119.849 178.423 119.499 177.027C119.406 176.725 119.348 176.413 119.328 176.097C119.246 175.347 119.325 174.589 119.559 173.872C119.793 173.155 120.177 172.497 120.685 171.94C121.193 171.383 121.814 170.94 122.507 170.642C123.199 170.344 123.947 170.196 124.701 170.209C126.307 170.234 127.849 170.847 129.033 171.932C130.217 173.017 130.962 174.499 131.127 176.097Z" fill="black"/>
<path opacity="0.7" d="M134.322 170.32C134.388 170.931 134.323 171.549 134.132 172.133C133.941 172.717 133.628 173.254 133.213 173.707C132.799 174.161 132.293 174.522 131.728 174.765C131.164 175.008 130.554 175.128 129.94 175.118C128.635 175.092 127.385 174.59 126.424 173.706C125.464 172.822 124.86 171.618 124.726 170.32C124.657 169.708 124.721 169.089 124.911 168.504C125.101 167.919 125.414 167.382 125.829 166.928C126.244 166.473 126.751 166.113 127.317 165.87C127.882 165.628 128.492 165.509 129.108 165.522C130.413 165.545 131.665 166.046 132.626 166.93C133.587 167.815 134.19 169.02 134.322 170.32Z" fill="white"/>
<path d="M115.374 144.897H110.552V146.121H115.374V144.897Z" fill="#407BFF"/>
<path d="M136.097 144.897H120.368V146.121H136.097V144.897Z" fill="#407BFF"/>
<path d="M337.824 234.58L338.24 235.082L338.803 235.73C339.207 236.159 339.599 236.612 340.027 237.028C340.872 237.909 341.79 238.766 342.72 239.635C344.579 241.349 346.528 242.963 348.558 244.47C350.627 246.012 352.806 247.419 354.984 248.815C356.208 249.476 357.212 250.173 358.363 250.81L361.019 252.279C361.405 252.449 361.839 252.475 362.243 252.352C363.1 252.095 368.02 247.224 369.587 245.412C373.063 241.434 378.326 236.195 381.166 231.74L384.336 236.11C382.332 241.568 379.673 246.763 376.417 251.581C374.666 254.186 372.565 256.537 370.174 258.57C368.739 259.779 367.119 260.75 365.376 261.446C363.167 262.328 360.741 262.512 358.424 261.973C357.825 261.827 357.239 261.63 356.674 261.385L355.572 260.908L353.589 260.002C352.255 259.415 350.97 258.705 349.672 258.056C347.078 256.672 344.561 255.148 342.132 253.49C339.684 251.807 337.334 249.984 335.094 248.031C333.932 247.016 332.891 245.987 331.826 244.874C331.3 244.323 330.762 243.747 330.247 243.148L329.489 242.217C329.207 241.875 328.999 241.618 328.62 241.091L337.824 234.58Z" fill="#FFB573"/>
<path d="M380.664 232.413L386.343 220.271L391.766 229.99C391.766 229.99 388.204 236.11 384.336 236.11L380.664 232.413Z" fill="#FFB573"/>
<path d="M392.782 215.228L398.51 222.597L391.815 229.977L386.392 220.271L392.782 215.228Z" fill="#FFB573"/>
<path d="M390.786 233.331H399.807C400.062 233.329 400.306 233.233 400.494 233.061C400.682 232.889 400.799 232.654 400.823 232.401L402.696 210.773C402.71 210.631 402.694 210.489 402.649 210.354C402.604 210.219 402.531 210.095 402.435 209.99C402.34 209.885 402.223 209.802 402.093 209.745C401.963 209.687 401.822 209.658 401.68 209.659H392.671C392.415 209.661 392.169 209.759 391.981 209.933C391.793 210.108 391.677 210.346 391.656 210.601L389.758 232.217C389.746 232.359 389.764 232.502 389.811 232.637C389.857 232.772 389.931 232.896 390.027 233C390.124 233.105 390.241 233.189 390.372 233.246C390.503 233.302 390.644 233.332 390.786 233.331Z" fill="#407BFF"/>
<path opacity="0.3" d="M390.884 231.165H399.918L401.607 211.838H392.574L390.884 231.165Z" fill="white"/>
<path d="M390.297 228.423L391.9 227.603C392.717 227.188 393.471 226.661 394.14 226.036L394.434 224.971C394.263 224.688 394.005 224.467 393.699 224.341C393.392 224.216 393.054 224.192 392.733 224.274L391.398 224.641L384.777 225.143L384.618 227.933L386.551 230.92H387.212C387.941 230.946 388.655 230.707 389.222 230.248C389.789 229.79 390.17 229.141 390.297 228.423Z" fill="#FFB573"/>
<path d="M326.269 222.768C330.859 221.936 363.234 250.002 363.234 250.002L353.638 264.078C353.638 264.078 318.24 239.427 319.366 233.478C320.455 227.223 319.586 223.992 326.269 222.768Z" fill="#263238"/>
<path opacity="0.2" d="M330.358 231.74L330.003 246.428C333.675 249.28 346.943 259.451 346.943 259.451L330.358 231.74Z" fill="black"/>
<path d="M304.69 514.459L315.547 515.524L318.999 490.347L308.13 489.282L304.69 514.459Z" fill="#FFB573"/>
<path d="M197.798 366.723L195.02 377.298L218.508 387.42L223.38 376.686L197.798 366.723Z" fill="#FFB573"/>
<path d="M323.32 517.752C324.254 517.867 325.199 517.66 326 517.165C326.173 517.014 326.308 516.824 326.393 516.612C326.478 516.399 326.511 516.169 326.49 515.941C326.489 515.798 326.451 515.657 326.377 515.535C326.304 515.412 326.199 515.311 326.074 515.243C324.764 514.46 320.333 516.565 319.831 516.797C319.783 516.82 319.743 516.857 319.717 516.903C319.691 516.949 319.679 517.002 319.684 517.054C319.691 517.108 319.715 517.159 319.752 517.198C319.79 517.238 319.839 517.265 319.892 517.275C321.018 517.538 322.165 517.698 323.32 517.752ZM325.29 515.561C325.461 515.548 325.631 515.586 325.78 515.671C325.831 515.698 325.875 515.739 325.905 515.788C325.935 515.838 325.951 515.895 325.951 515.953C325.964 516.106 325.941 516.26 325.884 516.402C325.826 516.545 325.736 516.672 325.621 516.773C324.947 517.348 323.173 517.397 320.725 516.932C322.168 516.211 323.725 515.743 325.327 515.549L325.29 515.561Z" fill="#407BFF"/>
<path d="M319.941 517.226H320.039C321.361 516.675 324.017 514.398 323.846 513.15C323.798 512.933 323.677 512.739 323.503 512.601C323.329 512.463 323.113 512.389 322.891 512.391C322.636 512.344 322.374 512.352 322.123 512.415C321.871 512.479 321.637 512.596 321.435 512.758C320.027 513.848 319.697 516.797 319.672 516.908C319.66 516.952 319.66 516.999 319.671 517.044C319.681 517.088 319.703 517.13 319.733 517.165C319.762 517.189 319.795 517.206 319.831 517.217C319.867 517.228 319.904 517.231 319.941 517.226ZM322.646 512.856H322.793C323.271 512.93 323.295 513.113 323.295 513.174C323.405 513.921 321.594 515.732 320.235 516.455C320.365 515.214 320.888 514.048 321.728 513.125C322.001 512.929 322.338 512.845 322.671 512.893L322.646 512.856Z" fill="#407BFF"/>
<path d="M315.009 511.143L305.217 511.559C305.006 511.561 304.803 511.64 304.647 511.783C304.491 511.925 304.393 512.12 304.372 512.33L302.022 526.002C302.009 526.234 302.042 526.467 302.119 526.687C302.196 526.907 302.317 527.109 302.472 527.282C302.628 527.455 302.817 527.595 303.028 527.695C303.238 527.794 303.466 527.851 303.699 527.862H303.895C308.166 527.642 310.223 527.324 315.633 527.14C318.95 527.03 329.097 528.23 333.626 527.201C338.154 526.173 337.298 521.681 335.351 521.718C329.06 521.84 321.802 517.74 318.216 512.942C317.591 512.538 315.694 511.106 315.009 511.143Z" fill="#263238"/>
<path d="M200.014 378.681L205.008 370.199C205.121 370.019 205.162 369.804 205.124 369.595C205.085 369.387 204.969 369.2 204.8 369.073L194.616 359.685C194.238 359.418 193.77 359.309 193.312 359.382C192.855 359.455 192.444 359.705 192.168 360.076L192.058 360.248C189.928 363.92 189.084 365.854 186.305 370.493C184.591 373.345 178.055 381.264 176.513 385.585C174.971 389.905 179.157 391.705 180.185 390.015C183.502 384.654 190.883 380.786 196.88 380.321C197.456 380.101 199.671 379.281 200.014 378.681Z" fill="#263238"/>
<path opacity="0.2" d="M318.999 490.347L317.224 503.333L306.355 502.268L308.118 489.294L318.999 490.347Z" fill="black"/>
<path opacity="0.2" d="M230.602 379.305L225.583 390.627L210.455 383.944L214.31 373.161L230.602 379.305Z" fill="black"/>
<path d="M333.209 235.681C339.415 246.232 331.826 255.131 325.486 286.661L284.58 286.771C285.241 269.782 285.168 256.049 277.921 222.621C277.733 221.798 277.734 220.942 277.923 220.119C278.112 219.295 278.484 218.525 279.013 217.866C279.541 217.207 280.212 216.676 280.975 216.312C281.737 215.949 282.572 215.762 283.417 215.767C286.795 215.767 291.043 215.877 295.363 216.318C302.178 216.875 308.947 217.901 315.621 219.39C319.24 220.263 322.797 221.375 326.269 222.719C328.375 223.429 330.908 229.157 333.209 235.681Z" fill="#263238"/>
<path d="M327.004 288.791C327.004 288.791 349.978 355.217 349.428 387.164C349.109 405.462 347.726 439.563 342.206 463.541C337.702 483.125 319.342 495.61 319.342 495.61L304.654 494.741C304.654 494.741 296.698 464.875 298.081 452.99C300.835 429.33 308.999 411.558 308.007 389.832C306.441 354.262 295.914 288.24 295.914 288.24L327.004 288.791Z" fill="#407BFF"/>
<path d="M301.704 498.572L322.451 499.796L324.336 493.566L301.153 491.424L301.704 498.572Z" fill="#263238"/>
<path opacity="0.2" d="M304.323 422.99C304.323 422.99 304.323 422.868 304.445 422.88C317.481 424.104 326.478 405.34 324.336 379.648L317.42 314.164L304.323 422.99Z" fill="black"/>
<path d="M316.698 288.24C316.698 288.24 334.96 405.046 296.991 418.192C276.954 425.781 260.1 417.555 240.137 408.718C228.594 403.614 214.176 389.795 214.176 389.795L219.72 374.703C229.693 372.006 240.127 371.48 250.32 373.161C269.782 376.172 270.602 381.729 277.517 377.531C292.059 341.594 267.04 313.185 284.041 288.179L316.698 288.24Z" fill="#407BFF"/>
<path d="M220.81 371.839L213.392 391.411L218.851 395.585L227.664 372.292L220.81 371.839Z" fill="#263238"/>
<path d="M217.75 266.293C215.901 269.023 206.526 267.175 206.526 267.175L204.53 255.559L216.048 260.173L217.75 266.293Z" fill="#FFB573"/>
<path d="M206.856 254.959L208.643 267.028L201.727 268.056C201.353 268.09 200.978 267.984 200.678 267.758C200.377 267.531 200.171 267.202 200.099 266.832L197.443 258.264C197.398 258.065 197.432 257.856 197.536 257.68C197.641 257.505 197.81 257.376 198.006 257.322L206.856 254.959Z" fill="#FFB573"/>
<path d="M203.759 260.431L207.701 261.128L211.434 258.325L209.989 257.297C209.011 256.6 208.322 255.568 208.056 254.396C207.778 253.169 207.61 251.92 207.554 250.663V250.247C207.507 249.878 207.34 249.534 207.079 249.269C206.818 249.004 206.478 248.831 206.109 248.778L205.13 249.5C204.518 250.834 204.959 252.389 204.885 253.429L204.726 255.449L203.147 256.134L203.759 260.431Z" fill="#FFB573"/>
<path d="M279.892 220.32L256.734 252.144L214.2 260.541V267.517C214.2 267.517 254.176 270.48 263.16 265.253C272.144 260.027 287.212 228.325 287.212 228.325L279.892 220.32Z" fill="#FFB573"/>
<path d="M279.623 159.12C269.904 155.864 258.631 161.899 254.188 171.127C249.745 180.356 251.299 191.678 256.306 200.614C257.811 203.319 259.61 205.865 260.847 208.692C262.22 211.495 262.521 214.704 261.691 217.713C260.687 220.638 259.659 222.511 256.036 222.046C256.036 222.046 256.036 220.039 257.419 220.283C257.419 220.283 254.482 221.911 253.331 220.846C254.665 222.903 258.227 222.156 259.366 219.977C261.067 216.734 257.933 212.34 254.261 212.376C250.589 212.413 247.603 216.134 247.725 219.794C247.878 221.624 248.53 223.378 249.609 224.864C250.687 226.351 252.153 227.514 253.845 228.227C252.853 228.391 251.835 228.221 250.949 227.745C250.064 227.269 249.36 226.513 248.949 225.596C250.614 229.953 256.049 231.875 260.639 231.018C265.229 230.161 269.109 227.223 272.707 224.249C277.603 220.234 282.609 215.155 282.499 208.876C282.389 204.188 279.378 200.161 276.844 196.207C274.311 192.254 272.095 187.431 273.711 183.037C275.069 179.304 278.766 177.052 282.022 174.775C284.372 173.147 289.145 169.512 288.582 166.072C288.007 162.792 282.377 160.038 279.623 159.12Z" fill="#263238"/>
<path d="M257.725 268.056L251.312 251.079L252.78 251.202C253.969 251.301 255.161 251.056 256.213 250.496C257.266 249.936 258.135 249.085 258.717 248.044C263.613 239.329 276.257 217.211 279.819 216.11C284.898 214.604 290.125 218.668 292.059 224.678C293.515 229.096 278.595 248.044 271.716 258.815C265.608 268.35 257.725 268.056 257.725 268.056Z" fill="#263238"/>
<path d="M195.167 384.263V384.397C195.257 384.633 195.405 384.841 195.598 385.004C195.791 385.167 196.021 385.278 196.268 385.327C196.417 385.374 196.575 385.382 196.727 385.349C196.879 385.317 197.021 385.247 197.137 385.144C198.166 384.201 197.505 380.248 197.443 379.856C197.437 379.805 197.414 379.758 197.379 379.721C197.344 379.683 197.298 379.658 197.248 379.648C197.2 379.642 197.152 379.648 197.107 379.665C197.062 379.682 197.022 379.71 196.991 379.746C196.158 380.921 194.836 383.014 195.167 384.263ZM197.052 380.591C197.272 382.157 197.37 384.263 196.795 384.777C196.735 384.81 196.667 384.827 196.599 384.827C196.53 384.827 196.463 384.81 196.403 384.777C196.239 384.746 196.085 384.674 195.956 384.566C195.827 384.459 195.729 384.321 195.669 384.165C195.448 383.504 195.913 382.157 197.052 380.566V380.591Z" fill="#407BFF"/>
<path d="M197.064 380.37C197.382 381.692 198.631 383.944 199.732 384.214C199.933 384.254 200.142 384.225 200.324 384.132C200.506 384.038 200.651 383.886 200.736 383.7C200.832 383.525 200.888 383.331 200.901 383.132C200.913 382.934 200.882 382.734 200.809 382.549C200.308 381.031 197.419 379.783 197.297 379.722C197.257 379.7 197.213 379.689 197.168 379.689C197.123 379.689 197.079 379.7 197.04 379.722C197.004 379.751 196.976 379.788 196.959 379.831C196.941 379.874 196.936 379.921 196.942 379.966C196.972 380.104 197.013 380.239 197.064 380.37ZM200.393 382.818C200.418 382.926 200.421 383.038 200.402 383.148C200.384 383.257 200.343 383.361 200.283 383.455C200.124 383.749 199.965 383.749 199.842 383.724C199.096 383.577 197.957 381.729 197.59 380.444C198.533 380.921 200.038 381.815 200.357 382.745C200.348 382.769 200.348 382.795 200.357 382.818H200.393Z" fill="#407BFF"/>
<path d="M284.433 284.702L283.295 288.681C283.148 288.987 283.503 289.305 284.017 289.293H326.245C326.649 289.293 326.979 289.084 327.004 288.84L327.396 284.862C327.396 284.592 327.077 284.348 326.637 284.36H285.143C285.005 284.349 284.867 284.375 284.742 284.435C284.617 284.496 284.511 284.588 284.433 284.702Z" fill="#407BFF"/>
<path opacity="0.5" d="M284.433 284.702L283.295 288.681C283.148 288.987 283.503 289.305 284.017 289.293H326.245C326.649 289.293 326.979 289.084 327.004 288.84L327.396 284.862C327.396 284.592 327.077 284.348 326.637 284.36H285.143C285.005 284.349 284.867 284.375 284.742 284.435C284.617 284.496 284.511 284.588 284.433 284.702Z" fill="white"/>
<path d="M292.536 289.66H291.312C291.079 289.66 290.884 289.537 290.908 289.39L291.459 284.213C291.459 284.066 291.691 283.944 291.936 283.944H293.16C293.393 283.944 293.576 284.066 293.564 284.225L293.013 289.39C292.94 289.537 292.72 289.672 292.536 289.66Z" fill="#407BFF"/>
<path d="M322.977 289.66H321.753C321.533 289.66 321.337 289.537 321.361 289.39L321.912 284.225C321.912 284.066 322.132 283.944 322.365 283.944H323.589C323.821 283.944 324.017 284.066 323.993 284.213L323.442 289.378C323.417 289.537 323.222 289.66 322.977 289.66Z" fill="#407BFF"/>
<path d="M309.011 289.635H307.787C307.554 289.635 307.359 289.513 307.383 289.366L307.934 284.201C307.934 284.042 308.166 283.919 308.399 283.919H309.623C309.856 283.919 310.039 284.042 310.027 284.188L309.464 289.354C309.464 289.513 309.256 289.635 309.011 289.635Z" fill="#407BFF"/>
<path d="M297.273 194.041C298.57 200.712 299.843 212.756 295.314 216.379C295.314 216.379 297.126 223.221 309.231 225.045C322.597 227.052 315.584 219.439 315.584 219.439C308.301 216.562 308.485 211.299 309.733 206.452L297.273 194.041Z" fill="#FFB573"/>
<path d="M295.363 216.318C301.822 216.727 308.242 217.619 314.568 218.986L323.724 221.715C325.351 224.996 322.683 231.74 315.021 233.025C315.021 233.025 295.718 235.681 290.027 215.803L295.363 216.318Z" fill="#FFB573"/>
<path opacity="0.2" d="M302.328 199.12L309.672 206.464C309.362 207.601 309.162 208.765 309.072 209.941C306.281 209.12 301.802 206.048 301.496 203.111C301.499 201.738 301.782 200.38 302.328 199.12Z" fill="black"/>
<path d="M289.097 185.62C292.377 195.975 293.527 200.43 300.247 204.506C310.26 210.626 322.279 204.359 322.157 193.245C322.059 183.233 316.734 167.982 305.364 166.317C302.864 165.943 300.31 166.214 297.945 167.105C295.58 167.996 293.483 169.478 291.852 171.409C290.222 173.34 289.112 175.657 288.63 178.138C288.148 180.618 288.308 183.182 289.097 185.583V185.62Z" fill="#FFB573"/>
<path d="M313.809 184.004C314.967 185.822 316.372 187.469 317.983 188.9C317.606 189.308 317.145 189.629 316.631 189.84C316.117 190.052 315.564 190.149 315.009 190.124L313.809 184.004Z" fill="#ED893E"/>
<path d="M312.646 195.656C313.061 195.611 313.47 195.529 313.87 195.412C313.902 195.404 313.931 195.391 313.957 195.372C313.984 195.354 314.006 195.33 314.023 195.303C314.04 195.276 314.052 195.245 314.057 195.213C314.062 195.182 314.061 195.149 314.054 195.118C314.037 195.054 313.995 194.999 313.938 194.964C313.881 194.93 313.813 194.919 313.748 194.934C312.703 195.222 311.605 195.262 310.543 195.049C309.48 194.836 308.482 194.378 307.628 193.71C307.577 193.66 307.509 193.632 307.438 193.632C307.367 193.632 307.299 193.66 307.248 193.71C307.224 193.734 307.205 193.763 307.191 193.794C307.178 193.826 307.171 193.86 307.171 193.894C307.171 193.928 307.178 193.962 307.191 193.993C307.205 194.025 307.224 194.054 307.248 194.077C308 194.682 308.864 195.133 309.79 195.404C310.716 195.675 311.687 195.761 312.646 195.656Z" fill="#263238"/>
<path d="M285.535 164.946C284.186 165.819 283.066 167.002 282.269 168.397C281.473 169.792 281.023 171.358 280.957 172.963C280.901 173.577 280.998 174.195 281.238 174.763C281.359 175.044 281.552 175.288 281.797 175.47C282.042 175.653 282.33 175.768 282.634 175.803C283.564 175.803 284.25 174.971 284.764 174.187L287.138 170.515C288.116 169.323 288.938 168.011 289.586 166.611C290.382 164.2 286.991 164.016 285.535 164.946Z" fill="#407BFF"/>
<path d="M286.697 167.382C280.198 174.897 277.285 195.693 296.33 201.495C299.513 198.974 294.372 194.384 292.193 188.582C290.761 184.787 298.019 177.7 300.847 174.787C303.674 171.874 306.281 167.676 310.272 168.349C311.285 168.688 312.375 168.718 313.405 168.435C316.575 167.003 315.033 165.105 313.405 163.784C310.909 161.936 307.936 160.84 304.837 160.626C301.494 160.232 298.106 160.639 294.952 161.814C291.797 162.989 288.968 164.898 286.697 167.382Z" fill="#263238"/>
<path d="M307.836 164.861C315.486 171.238 305.388 171.397 300.039 175.436C294.911 179.316 298.509 185.669 289.831 188.618C282.744 190.687 281.104 189.439 279.145 188.068C281.572 187.648 283.792 186.437 285.459 184.624C287.126 182.81 288.147 180.497 288.362 178.043C288.962 173.392 299.097 157.468 307.836 164.861Z" fill="#263238"/>
<path d="M287.946 194.322C289.144 196.049 290.973 197.235 293.038 197.627C295.78 198.104 296.832 195.595 295.89 193.147C294.996 190.944 292.511 188.043 289.855 188.667C288.942 188.904 288.16 189.493 287.68 190.305C287.201 191.117 287.063 192.087 287.297 193C287.422 193.48 287.643 193.93 287.946 194.322Z" fill="#FFB573"/>
<path d="M306.526 165.509C308.007 169.279 312.279 168.777 315.437 172.719C317.383 175.167 321.202 167.615 316 164.64C310.798 161.666 304.201 159.61 306.526 165.509Z" fill="#263238"/>
<path d="M302.022 181.421C302.131 181.433 302.241 181.41 302.335 181.355C302.43 181.3 302.505 181.216 302.548 181.115C303.552 178.888 306.563 178.325 306.588 178.325C306.722 178.295 306.84 178.215 306.917 178.101C306.995 177.988 307.026 177.848 307.004 177.713C306.977 177.58 306.899 177.463 306.787 177.387C306.675 177.312 306.537 177.283 306.404 177.309C306.245 177.309 302.818 178.031 301.594 180.724C301.539 180.849 301.535 180.99 301.583 181.118C301.631 181.246 301.727 181.351 301.851 181.409H302.022V181.421Z" fill="#263238"/>
<path d="M317.934 176.917C318.024 176.924 318.113 176.905 318.193 176.864C318.273 176.823 318.34 176.761 318.387 176.685C318.426 176.629 318.453 176.567 318.468 176.501C318.482 176.435 318.483 176.367 318.47 176.301C318.458 176.235 318.432 176.172 318.395 176.116C318.357 176.059 318.309 176.012 318.252 175.975C317.574 175.505 316.793 175.205 315.975 175.101C315.157 174.997 314.326 175.09 313.552 175.375C313.488 175.4 313.429 175.438 313.38 175.487C313.331 175.536 313.293 175.594 313.268 175.659C313.242 175.723 313.231 175.792 313.233 175.861C313.236 175.93 313.253 175.998 313.283 176.06C313.337 176.185 313.438 176.283 313.564 176.334C313.69 176.384 313.831 176.383 313.956 176.33C314.565 176.117 315.216 176.052 315.854 176.142C316.493 176.231 317.101 176.472 317.628 176.844C317.723 176.89 317.828 176.915 317.934 176.917Z" fill="#263238"/>
<path d="M368.253 243.919L361.08 247.995L353.626 264.029C353.626 264.029 360.823 268.607 366.502 264.898C372.182 261.189 368.253 243.919 368.253 243.919Z" fill="#407BFF"/>
<path opacity="0.5" d="M368.253 243.919L361.08 247.995L353.626 264.029C353.626 264.029 360.823 268.607 366.502 264.898C372.182 261.189 368.253 243.919 368.253 243.919Z" fill="white"/>
<path d="M242.829 248.876L251.312 251.324L259.353 267.958C259.353 267.958 252.891 273.944 245.889 268.227C240.651 263.894 242.829 248.876 242.829 248.876Z" fill="#407BFF"/>
<g opacity="0.5">
<path opacity="0.5" d="M242.829 248.876L251.312 251.324L259.353 267.958C259.353 267.958 252.891 273.944 245.889 268.227C240.651 263.894 242.829 248.876 242.829 248.876Z" fill="white"/>
</g>
<path d="M317.444 181.066C318.032 180.956 318.668 181.617 318.803 182.523C318.938 183.429 318.607 184.261 318.02 184.359C317.432 184.457 316.796 183.808 316.661 182.902C316.526 181.997 316.857 181.152 317.444 181.066Z" fill="#263238"/>
<path d="M319.256 180.173L317.187 181.189C318.436 182.07 319.256 180.173 319.256 180.173Z" fill="#263238"/>
<path d="M307.224 183.172C307.811 183.062 308.448 183.722 308.583 184.628C308.717 185.534 308.387 186.366 307.799 186.464C307.212 186.562 306.575 185.913 306.441 185.008C306.306 184.102 306.612 183.282 307.224 183.172Z" fill="#263238"/>
<path d="M309.011 182.278L306.942 183.294C308.191 184.175 309.011 182.278 309.011 182.278Z" fill="#263238"/>
<path d="M255.4 230.002C254.247 230.009 253.104 229.792 252.034 229.365C248.239 227.811 246.477 223.87 247.138 218.533C247.159 218.372 247.243 218.227 247.372 218.128C247.5 218.03 247.663 217.986 247.823 218.007C247.903 218.016 247.981 218.041 248.051 218.08C248.122 218.12 248.183 218.173 248.232 218.237C248.281 218.301 248.317 218.375 248.337 218.453C248.357 218.531 248.362 218.612 248.35 218.692C247.713 223.429 249.206 226.905 252.45 228.227C254.333 228.872 256.371 228.904 258.273 228.319C260.174 227.734 261.842 226.562 263.038 224.971C266.11 220.883 265.106 215.081 260.32 209.059C247.787 193.331 248.619 184.971 250.394 178.361C252.964 168.765 260.492 157.774 281.789 159.891C281.952 159.907 282.101 159.987 282.204 160.114C282.307 160.24 282.356 160.402 282.34 160.564C282.324 160.727 282.244 160.876 282.118 160.979C281.991 161.083 281.829 161.131 281.667 161.115C261.238 159.083 254.017 169.561 251.569 178.692C249.806 185.301 249.121 193.025 261.275 208.313C268.619 217.529 265.645 223.564 264.017 225.718C262.998 227.037 261.693 228.109 260.201 228.851C258.708 229.593 257.067 229.986 255.4 230.002Z" fill="#263238"/>
</svg>
